<svg width="32" height="32" viewBox="0 0 32 32" fill="none" xmlns="http://www.w3.org/2000/svg">
<path d="M26.2137 5.55622C22.6937 3.15622 18.3471 4.27622 16.0004 7.02289C13.6537 4.27622 9.30705 3.14289 5.78705 5.55622C3.92039 6.83622 2.74705 8.99622 2.66705 11.2762C2.48039 16.4496 7.06705 20.5962 14.0671 26.9562L14.2004 27.0762C15.2137 27.9962 16.7737 27.9962 17.7871 27.0629L17.9337 26.9296C24.9337 20.5829 29.5071 16.4362 29.3337 11.2629C29.2537 8.99622 28.0804 6.83622 26.2137 5.55622ZM16.1337 24.9696L16.0004 25.1029L15.8671 24.9696C9.52039 19.2229 5.33372 15.4229 5.33372 11.5696C5.33372 8.90289 7.33372 6.90289 10.0004 6.90289C12.0537 6.90289 14.0537 8.22289 14.7604 10.0496H17.2537C17.9471 8.22289 19.9471 6.90289 22.0004 6.90289C24.6671 6.90289 26.6671 8.90289 26.6671 11.5696C26.6671 15.4229 22.4804 19.2229 16.1337 24.9696Z" fill="black"/>
</svg>
