<svg width="33" height="32" viewBox="0 0 33 32" fill="none" xmlns="http://www.w3.org/2000/svg">
<path d="M20.29 6.64L13.6234 4.30666C13.0634 4.10666 12.45 4.10666 11.89 4.29333L6.57005 6.08C5.49005 6.45333 4.75671 7.46666 4.75671 8.61333V24.4133C4.75671 26.2933 6.63671 27.5733 8.38338 26.8933L12.29 25.3733C12.5834 25.2533 12.9167 25.2533 13.21 25.36L19.8767 27.6933C20.4367 27.8933 21.05 27.8933 21.61 27.7067L26.93 25.92C28.01 25.56 28.7434 24.5333 28.7434 23.3867V7.58666C28.7434 5.70666 26.8634 4.42666 25.1167 5.10666L21.21 6.62666C20.9167 6.73333 20.5967 6.74666 20.29 6.64ZM20.7567 25.1867L12.7567 22.3733V6.81333L20.7567 9.62666V25.1867Z" fill="#2A2829"/>
</svg>
