<svg width="33" height="32" viewBox="0 0 33 32" fill="none" xmlns="http://www.w3.org/2000/svg">
<path d="M26.25 16C26.25 15.6933 26.2367 15.4 26.21 15.0933L28.69 13.2133C29.2234 12.8133 29.37 12.0667 29.0367 11.48L26.5434 7.17334C26.21 6.58667 25.49 6.34667 24.8767 6.61334L22.01 7.82667C21.5167 7.48001 20.9967 7.17334 20.45 6.92001L20.0634 3.84001C19.9834 3.17334 19.41 2.66667 18.7434 2.66667H13.77C13.09 2.66667 12.5167 3.17334 12.4367 3.84001L12.05 6.92001C11.5034 7.17334 10.9834 7.48001 10.49 7.82667L7.62337 6.61334C7.01004 6.34667 6.29004 6.58667 5.95671 7.17334L3.46338 11.4933C3.13004 12.08 3.27671 12.8133 3.81004 13.2267L6.29004 15.1067C6.26338 15.4 6.25004 15.6933 6.25004 16C6.25004 16.3067 6.26338 16.6 6.29004 16.9067L3.81004 18.7867C3.27671 19.1867 3.13004 19.9333 3.46338 20.52L5.95671 24.8267C6.29004 25.4133 7.01004 25.6533 7.62337 25.3867L10.49 24.1733C10.9834 24.52 11.5034 24.8267 12.05 25.08L12.4367 28.16C12.5167 28.8267 13.09 29.3333 13.7567 29.3333H18.73C19.3967 29.3333 19.97 28.8267 20.05 28.16L20.4367 25.08C20.9834 24.8267 21.5034 24.52 21.9967 24.1733L24.8634 25.3867C25.4767 25.6533 26.1967 25.4133 26.53 24.8267L29.0234 20.52C29.3567 19.9333 29.21 19.2 28.6767 18.7867L26.1967 16.9067C26.2367 16.6 26.25 16.3067 26.25 16ZM16.3034 20.6667C13.73 20.6667 11.6367 18.5733 11.6367 16C11.6367 13.4267 13.73 11.3333 16.3034 11.3333C18.8767 11.3333 20.97 13.4267 20.97 16C20.97 18.5733 18.8767 20.6667 16.3034 20.6667Z" fill="#2A2829"/>
</svg>
