<svg width="32" height="32" viewBox="0 0 32 32" fill="none" xmlns="http://www.w3.org/2000/svg">
<path d="M10.6617 24C9.19508 24 8.00841 25.2 8.00841 26.6667C8.00841 28.1333 9.19508 29.3333 10.6617 29.3333C12.1284 29.3333 13.3284 28.1333 13.3284 26.6667C13.3284 25.2 12.1284 24 10.6617 24ZM2.66174 4.00001C2.66174 4.73334 3.26174 5.33334 3.99508 5.33334H5.32841L10.1284 15.4533L8.32841 18.7067C7.35508 20.4933 8.63508 22.6667 10.6617 22.6667H25.3284C26.0617 22.6667 26.6617 22.0667 26.6617 21.3333C26.6617 20.6 26.0617 20 25.3284 20H10.6617L12.1284 17.3333H22.0617C23.0617 17.3333 23.9417 16.7867 24.3951 15.96L29.1684 7.30667C29.6617 6.42667 29.0217 5.33334 28.0084 5.33334H8.27508L7.38174 3.42667C7.16841 2.96001 6.68841 2.66667 6.18174 2.66667H3.99508C3.26174 2.66667 2.66174 3.26667 2.66174 4.00001ZM23.9951 24C22.5284 24 21.3417 25.2 21.3417 26.6667C21.3417 28.1333 22.5284 29.3333 23.9951 29.3333C25.4617 29.3333 26.6617 28.1333 26.6617 26.6667C26.6617 25.2 25.4617 24 23.9951 24Z" fill="#2A2829"/>
</svg>
